<svg width="152" height="32" viewBox="0 0 152 32" fill="none" xmlns="http://www.w3.org/2000/svg">
<path d="M35.6689 16.8188H4.28623C3.62872 16.8188 3.09179 17.3762 3.15209 18.0341C3.84119 25.8487 11.1112 31.9997 19.9776 31.9997C28.844 31.9997 36.1139 25.8515 36.803 18.0341C36.8605 17.3762 36.3264 16.8188 35.6689 16.8188Z" fill="#FF6633"/>
<path fill-rule="evenodd" clip-rule="evenodd" d="M0.225147 3.33137C1.7887 1.27854 4.60645 0 7.711 0C10.8155 0 13.6333 1.27854 15.1969 3.33137C15.5659 3.81589 15.4714 4.50716 14.9858 4.87537C14.5001 5.24357 13.8073 5.14928 13.4383 4.66476C12.3661 3.25707 10.2569 2.20377 7.711 2.20377C5.16509 2.20377 3.05591 3.25707 1.98374 4.66476C1.6147 5.14928 0.921857 5.24357 0.436236 4.87537C-0.0493858 4.50716 -0.143894 3.81589 0.225147 3.33137Z" fill="#414141"/>
<path fill-rule="evenodd" clip-rule="evenodd" d="M24.7671 3.33137C26.3307 1.27854 29.1484 0 32.253 0C35.3552 0 38.1721 1.27884 39.7381 3.33045C40.1077 3.81458 40.0139 4.50596 39.5287 4.87467C39.0434 5.24338 38.3505 5.14981 37.981 4.66568C36.9055 3.25676 34.7955 2.20377 32.253 2.20377C29.7071 2.20377 27.5979 3.25707 26.5257 4.66476C26.1567 5.14928 25.4638 5.24357 24.9782 4.87537C24.4926 4.50716 24.3981 3.81589 24.7671 3.33137Z" fill="#414141"/>
<path d="M57.9525 18.2183C57.7473 18.3697 57.5025 18.4882 57.2245 18.5869C56.9465 18.6857 56.6951 18.7317 56.4634 18.7317C55.7156 18.7317 55.0736 18.475 54.5508 17.9682C54.0279 17.4548 53.7698 16.8296 53.7698 16.0924C53.7698 15.3486 54.0279 14.7233 54.5508 14.2099C55.0736 13.69 55.7156 13.4333 56.4634 13.4333C56.6951 13.4333 56.9532 13.4859 57.2377 13.5846C57.5223 13.6834 57.7672 13.815 57.9856 13.9796C58.1709 14.1112 58.3827 14.0915 58.482 13.9532L59.4879 12.4855C59.574 12.3604 59.5343 12.1629 59.3754 12.051C58.9849 11.768 58.5151 11.5377 57.9657 11.3599C57.4164 11.1756 56.9135 11.0835 56.4634 11.0835C55.7619 11.0835 55.0935 11.2151 54.4647 11.4784C53.836 11.7351 53.2999 12.0905 52.8433 12.5381C52.3932 12.9791 52.0358 13.5122 51.7711 14.1309C51.5064 14.7497 51.374 15.4013 51.374 16.0924C51.374 16.7835 51.5064 17.4351 51.7711 18.0538C52.0358 18.6725 52.3932 19.2056 52.8433 19.6466C53.2999 20.0876 53.836 20.4431 54.4647 20.7063C55.0935 20.963 55.7619 21.0947 56.4634 21.0947C56.9267 21.0947 57.4297 21.0091 57.9724 20.8314C58.5217 20.6537 58.9717 20.4299 59.3291 20.16C59.4946 20.0481 59.5674 19.8507 59.4879 19.7256L58.5018 18.2381C58.3959 18.0867 58.1577 18.0801 57.9525 18.2183Z" fill="#414141"/>
<path d="M60.7255 20.5418C60.7255 20.759 60.8579 20.884 61.0763 20.884H67.4298C67.6482 20.884 67.7872 20.7524 67.7872 20.5418V19.1201C67.7872 18.8502 67.6018 18.6725 67.304 18.6725H63.1015V17.0336H66.2914C66.5297 17.0336 66.6753 16.902 66.6753 16.6847V15.4342C66.6753 15.2038 66.5297 15.0722 66.2914 15.0722H63.1015V13.4793H67.304C67.5357 13.4793 67.6548 13.3609 67.6548 13.1305V11.6166C67.6548 11.3994 67.5224 11.2678 67.304 11.2678H61.0763C60.8579 11.2678 60.7255 11.3994 60.7255 11.6166V20.5418Z" fill="#414141"/>
<path d="M75.1731 15.7896C75.7224 15.4276 76.0665 14.7497 76.0665 14.0454C76.0665 13.17 75.7819 12.4855 75.2194 11.9984C74.6568 11.5113 73.8693 11.2678 72.8501 11.2678H69.3755C69.2034 11.2678 69.1174 11.3534 69.1174 11.5179V20.6339C69.1174 20.7985 69.2034 20.884 69.3755 20.884H73.128C74.1936 20.884 75.0208 20.6273 75.6099 20.1205C76.2055 19.6137 76.5033 18.9029 76.5033 17.988C76.5033 17.5075 76.3842 17.0665 76.1459 16.665C75.9077 16.2635 75.5834 15.9739 75.1731 15.7896ZM72.8236 13.4069C73.3464 13.4069 73.6707 13.7163 73.6707 14.2165C73.6707 14.7167 73.3464 15.0327 72.8236 15.0327H71.5198V13.4069H72.8236ZM71.5198 18.7449V16.8164H73.0949C73.7104 16.8164 74.1009 17.1784 74.1009 17.7642C74.1009 18.3632 73.7104 18.7449 73.0949 18.7449H71.5198Z" fill="#414141"/>
<path d="M77.6946 20.5418C77.6946 20.759 77.827 20.884 78.0454 20.884H84.3988C84.6172 20.884 84.7562 20.7524 84.7562 20.5418V19.1201C84.7562 18.8502 84.5709 18.6725 84.2731 18.6725H80.0705V17.0336H83.2605C83.4988 17.0336 83.6444 16.902 83.6444 16.6847V15.4342C83.6444 15.2038 83.4988 15.0722 83.2605 15.0722H80.0705V13.4793H84.2731C84.5047 13.4793 84.6238 13.3609 84.6238 13.1305V11.6166C84.6238 11.3994 84.4915 11.2678 84.2731 11.2678H78.0454C77.827 11.2678 77.6946 11.3994 77.6946 11.6166V20.5418Z" fill="#414141"/>
<path d="M88.1447 11.2678H87.2844H86.4306C86.2254 11.2678 86.0865 11.4192 86.0865 11.6232V20.5418C86.0865 20.759 86.2122 20.8906 86.4306 20.8906H88.1249C88.3565 20.8906 88.4889 20.759 88.4889 20.5418V17.9222H89.6471C90.6795 17.9222 91.5134 17.6194 92.1554 17.0204C92.7973 16.4149 93.1216 15.6119 93.1216 14.6114C93.1216 13.5978 92.7973 12.7882 92.1554 12.1827C91.5134 11.5706 90.6795 11.2678 89.6471 11.2678H88.1447ZM88.4889 15.7567V13.4333H89.5478C89.8853 13.4333 90.1699 13.5452 90.3883 13.7689C90.6133 13.9861 90.7258 14.2626 90.7258 14.5983C90.7258 14.9339 90.6133 15.2104 90.3883 15.4276C90.1699 15.6448 89.8853 15.7567 89.5478 15.7567H88.4889Z" fill="#414141"/>
<path d="M100.388 11.2678H97.4301C96.3976 11.2678 95.5571 11.5706 94.9151 12.1827C94.2732 12.7882 93.9555 13.5978 93.9555 14.6048C93.9555 15.8093 94.5048 16.8032 95.4512 17.3627L93.757 20.4891C93.6511 20.68 93.7702 20.8906 93.982 20.8906H95.9608C96.1527 20.8906 96.2388 20.8248 96.3645 20.5944L97.7808 17.8827H98.7669V20.5418C98.7669 20.759 98.8993 20.8906 99.1309 20.8906H100.825C101.044 20.8906 101.169 20.759 101.169 20.5418V11.6166C101.169 11.4126 101.03 11.2678 100.825 11.2678H100.388ZM97.5293 15.8225C97.1918 15.8225 96.9072 15.704 96.6822 15.4671C96.4638 15.2236 96.3513 14.9339 96.3513 14.5917C96.3513 14.2494 96.4638 13.973 96.6822 13.7558C96.9006 13.5386 97.1852 13.4267 97.5293 13.4267H98.7669V15.8225H97.5293Z" fill="#414141"/>
<path d="M109.038 11.2678C108.873 11.2678 108.787 11.3534 108.787 11.5245V14.8484H105.167V11.5245C105.167 11.3534 105.081 11.2678 104.915 11.2678H103.049C102.877 11.2678 102.791 11.3534 102.791 11.5245V20.6339C102.791 20.8051 102.877 20.8906 103.049 20.8906H104.915C105.081 20.8906 105.167 20.8051 105.167 20.6339V17.0138H108.787V20.6339C108.787 20.8051 108.873 20.8906 109.038 20.8906H110.911C111.077 20.8906 111.163 20.8051 111.163 20.6339V11.5245C111.163 11.3534 111.077 11.2678 110.911 11.2678H109.038Z" fill="#414141"/>
<path d="M112.341 16.099C112.341 16.7835 112.473 17.4351 112.731 18.0538C112.996 18.6659 113.353 19.1991 113.797 19.6401C114.247 20.081 114.783 20.4365 115.405 20.6997C116.027 20.9564 116.682 21.0881 117.377 21.0881C118.304 21.0881 119.151 20.8709 119.919 20.4299C120.693 19.9889 121.295 19.3834 121.739 18.6198C122.182 17.8563 122.407 17.0138 122.407 16.099C122.407 15.4078 122.275 14.7562 122.01 14.1375C121.752 13.5122 121.395 12.9791 120.945 12.5381C120.501 12.0971 119.965 11.7417 119.343 11.485C118.727 11.2217 118.072 11.0901 117.377 11.0901C116.682 11.0901 116.027 11.2217 115.405 11.485C114.783 11.7417 114.247 12.0971 113.797 12.5381C113.353 12.9791 112.996 13.5122 112.731 14.1375C112.473 14.7562 112.341 15.4078 112.341 16.099ZM114.737 16.099C114.737 15.3618 114.995 14.7431 115.504 14.2363C116.014 13.7294 116.643 13.4727 117.377 13.4727C118.112 13.4727 118.734 13.7294 119.244 14.2363C119.753 14.7431 120.011 15.3618 120.011 16.099C120.011 16.8296 119.753 17.4417 119.244 17.9485C118.734 18.4553 118.112 18.7054 117.377 18.7054C116.636 18.7054 116.007 18.4553 115.498 17.9485C114.988 17.4417 114.737 16.8296 114.737 16.099Z" fill="#414141"/>
<path d="M129.303 11.2612C129.118 11.2612 128.966 11.4258 128.966 11.6166V14.3284C128.966 14.8221 128.807 15.217 128.496 15.5132C128.185 15.8093 127.774 15.9607 127.252 15.9607C126.213 15.9607 125.597 15.3486 125.597 14.3152V11.6166C125.597 11.4126 125.438 11.2612 125.226 11.2612H123.526C123.347 11.2612 123.201 11.4258 123.201 11.6166V14.3218C123.201 15.5197 123.559 16.4807 124.273 17.2047C124.988 17.9222 125.915 18.2842 127.053 18.2842C127.794 18.2842 128.489 17.988 128.966 17.5338V20.5418C128.966 20.7327 129.111 20.884 129.303 20.884H131.017C131.209 20.884 131.362 20.7261 131.362 20.5352V11.6166C131.362 11.4126 131.223 11.2612 131.037 11.2612H129.303Z" fill="#414141"/>
<path d="M138.714 15.8028L141.792 11.7219C141.951 11.5113 141.884 11.2875 141.64 11.2875H139.462C139.231 11.2875 139.105 11.3139 138.953 11.5179L136.444 14.8681H135.379V11.5245C135.379 11.3599 135.293 11.2744 135.127 11.2744H133.241C133.069 11.2744 132.983 11.3599 132.983 11.5245V20.6273C132.983 20.7985 133.069 20.884 133.241 20.884H135.127C135.293 20.884 135.379 20.7985 135.379 20.6273V17.1192H136.742L139.178 20.7524C139.264 20.8511 139.383 20.9038 139.522 20.9038H141.719C141.951 20.9038 142.01 20.6734 141.878 20.4825L138.714 15.8028Z" fill="#414141"/>
<path d="M148.192 11.5837C148.119 11.3928 147.94 11.2612 147.755 11.2612H146.358C146.173 11.2612 145.994 11.3797 145.908 11.5837L142.374 20.5023C142.288 20.7327 142.387 20.8906 142.632 20.8906H144.505C144.71 20.8906 144.883 20.759 144.935 20.5747L145.366 19.3175H148.721L149.158 20.5813C149.231 20.7656 149.396 20.8972 149.581 20.8972H151.461C151.719 20.8972 151.805 20.7261 151.719 20.5089L148.192 11.5837ZM147.04 14.414L148.039 17.3298H146.041L147.04 14.414Z" fill="#414141"/>
</svg>
