<svg width="216" height="200" viewBox="0 0 216 200" fill="none" xmlns="http://www.w3.org/2000/svg">
<path d="M49.0389 19.9928L20.8038 -5.32402C20.2123 -5.85444 19.2771 -5.78341 18.7978 -5.13963C13.0795 2.48512 14.6313 13.914 22.6084 21.0667C30.5855 28.2193 42.113 28.5226 49.0735 22.007C49.6588 21.4582 49.6304 20.5232 49.0389 19.9928Z" fill="#FF6633"/>
<path d="M195.221 192.796L223.456 218.113C224.047 218.643 224.983 218.572 225.462 217.928C231.18 210.303 229.629 198.875 221.651 191.722C213.674 184.569 202.147 184.266 195.186 190.782C194.601 191.33 194.629 192.265 195.221 192.796Z" fill="#FF6633"/>
<path d="M227.079 69.1121L197.715 45.114C197.1 44.6112 196.169 44.7249 195.719 45.39C190.356 53.2684 192.429 64.6143 200.725 71.3944C209.021 78.1745 220.551 77.9499 227.206 71.1227C227.765 70.5476 227.694 69.6149 227.079 69.1121Z" fill="#FF6633"/>
<path d="M36.5967 152.597L63.3053 125.675C63.8648 125.111 63.8411 124.174 63.2223 123.662C55.8956 117.567 44.403 118.54 36.8571 126.146C29.3113 133.753 28.427 145.25 34.5832 152.531C35.1018 153.143 36.0371 153.162 36.5967 152.597Z" fill="#FF6633"/>
<path d="M30.9153 91.3231C25.3475 91.9145 19.8723 83.3394 18.6861 72.1702C17.4999 61.001 21.0519 51.4672 26.6197 50.8759C32.1875 50.2845 37.6628 58.8596 38.849 70.0288C40.0352 81.198 36.4832 90.7318 30.9153 91.3231Z" fill="#FCA21C"/>
<path d="M216.571 110.581C222.139 109.99 227.614 118.565 228.8 129.734C229.986 140.903 226.434 150.437 220.867 151.028C215.299 151.62 209.824 143.045 208.637 131.875C207.451 120.706 211.003 111.172 216.571 110.581Z" fill="#FCA21C"/>
<path d="M155.855 4.90633C159.476 7.509 157.097 17.0123 150.541 26.1326C143.985 35.2529 135.735 40.5364 132.115 37.9337C128.494 35.3311 130.873 25.8278 137.429 16.7075C143.985 7.58721 152.235 2.30366 155.855 4.90633Z" fill="#FCA21C"/>
<path d="M101.977 159.895C97.5445 159.412 94.9367 149.969 96.1526 138.803C97.3685 127.637 101.948 118.977 106.381 119.459C110.814 119.942 113.422 129.385 112.206 140.551C110.99 151.717 106.41 160.378 101.977 159.895Z" fill="#FCA21C"/>
<path fill-rule="evenodd" clip-rule="evenodd" d="M104.33 64.6267C106.184 67.2203 105.584 70.8214 102.988 72.6701C97.1432 76.8331 89.2771 78.0691 81.827 75.6485C74.3768 73.2278 68.7409 67.6035 66.4589 60.8017C65.4452 57.7805 67.0757 54.514 70.1007 53.5057C73.1256 52.4973 76.3995 54.1291 77.4131 57.1502C78.49 60.3598 81.2994 63.352 85.3904 64.6812C89.4828 66.0109 93.5143 65.2416 96.2713 63.278C98.8669 61.4293 102.475 62.0332 104.33 64.6267Z" fill="#70C05B"/>
<path fill-rule="evenodd" clip-rule="evenodd" d="M146.577 135.599C144.722 133.006 145.322 129.405 147.918 127.556C153.763 123.393 161.629 122.157 169.079 124.578C176.529 126.998 182.165 132.623 184.447 139.424C185.461 142.446 183.831 145.712 180.806 146.72C177.781 147.729 174.507 146.097 173.493 143.076C172.416 139.866 169.607 136.874 165.516 135.545C161.423 134.215 157.392 134.984 154.635 136.948C152.039 138.797 148.432 138.193 146.577 135.599Z" fill="#70C05B"/>
<path fill-rule="evenodd" clip-rule="evenodd" d="M204.272 -0.775651C203.762 -3.92321 205.9 -6.8828 209.047 -7.38606C216.133 -8.51938 223.729 -6.13258 229.329 -0.654445C234.928 4.82377 237.479 12.3662 236.502 19.4738C236.068 22.6308 233.156 24.8331 229.998 24.3928C226.84 23.9524 224.632 21.0362 225.066 17.8793C225.527 14.5253 224.339 10.5966 221.264 7.58844C218.189 4.57929 214.235 3.4777 210.893 4.01226C207.746 4.51553 204.782 2.37191 204.272 -0.775651Z" fill="#70C05B"/>
<path fill-rule="evenodd" clip-rule="evenodd" d="M114.698 200.053C116.953 202.308 116.95 205.958 114.692 208.207C109.607 213.271 102.05 215.778 94.304 214.61C86.5579 213.442 80.0772 208.817 76.7122 202.48C75.2176 199.666 76.2912 196.177 79.1102 194.687C81.9292 193.197 85.426 194.27 86.9207 197.085C88.5085 200.075 91.77 202.566 96.0235 203.208C100.278 203.849 104.129 202.43 106.528 200.042C108.786 197.793 112.444 197.798 114.698 200.053Z" fill="#70C05B"/>
<path d="M80.7235 3.95806C79.2204 1.71707 79.8186 -1.3181 82.0596 -2.82118L105.797 -18.7424C108.038 -20.2455 111.073 -19.6473 112.576 -17.4063L117.271 -10.4068C118.774 -8.16583 118.176 -5.13066 115.935 -3.62758L92.1975 12.2936C89.9565 13.7967 86.9213 13.1985 85.4182 10.9575L80.7235 3.95806Z" fill="#1CB9FC"/>
<path d="M134.358 177.491C133.782 174.854 135.453 172.251 138.089 171.675L166.013 165.579C168.65 165.003 171.253 166.674 171.829 169.31L173.627 177.544C174.202 180.18 172.532 182.784 169.895 183.36L141.971 189.456C139.335 190.032 136.731 188.361 136.155 185.725L134.358 177.491Z" fill="#1CB9FC"/>
<path d="M162.497 99.1413C160.483 100.937 157.394 100.761 155.598 98.7474L136.572 77.4177C134.776 75.404 134.952 72.3155 136.966 70.5193L143.256 64.909C145.269 63.1128 148.358 63.2892 150.154 65.3029L169.18 86.6326C170.976 88.6463 170.8 91.7348 168.786 93.531L162.497 99.1413Z" fill="#1CB9FC"/>
<path d="M29.6582 173.558C32.3177 173.102 34.8437 174.887 35.3002 177.547L40.136 205.717C40.5925 208.377 38.8066 210.903 36.1472 211.359L27.8405 212.785C25.1811 213.242 22.655 211.456 22.1985 208.796L17.3628 180.626C16.9063 177.967 18.6921 175.441 21.3516 174.984L29.6582 173.558Z" fill="#1CB9FC"/>
</svg>
